PathFileType	4	(X/Y/Z)	C:\Users\Basilio\Documents\Thesis Gigler\squatting_fais\c3dfiles\058\SLS_front_pre3\markers_experimental.trc
DataRate	CameraRate	NumFrames	NumMarkers	Units	OrigDataRate	OrigDataStartFrame	OrigNumFrames
200.000000	200.000000	4	61	mm	200.000000	789	1263
Frame#	Time	FHD			LBHD			RBHD			C7			T10			CLAV			LSHO			LUUPA			LMUPA			LDUPA			LLEP			LMEP			LRAD			LUL			LRFIN			RSHO			RUPA1			RMUPA			RDUPA			RLEP			RMEP			RRAD			RUL			RUFIN			LASI			RASI			USACR			LSACR			RSACR			LTHI1			LTHI2			LTHI3			LTHI4			LLFC			LMFC			LTIB1			LTIB2			LTIB3			LTIB4			LLMAL			LMMAL			LHEE			LMT1			LMT2			LMT5			RTHI			RTHI2			RTHI3			RTHI4			RLFC			RMFC			RTIB1			RTIB2			RTIB3			RTIB4			RLMAL			RMMAL			RHEE			RMT1			RMT2			RMT5			
		X1	Y1	Z1	X2	Y2	Z2	X3	Y3	Z3	X4	Y4	Z4	X5	Y5	Z5	X6	Y6	Z6	X7	Y7	Z7	X8	Y8	Z8	X9	Y9	Z9	X10	Y10	Z10	X11	Y11	Z11	X12	Y12	Z12	X13	Y13	Z13	X14	Y14	Z14	X15	Y15	Z15	X16	Y16	Z16	X17	Y17	Z17	X18	Y18	Z18	X19	Y19	Z19	X20	Y20	Z20	X21	Y21	Z21	X22	Y22	Z22	X23	Y23	Z23	X24	Y24	Z24	X25	Y25	Z25	X26	Y26	Z26	X27	Y27	Z27	X28	Y28	Z28	X29	Y29	Z29	X30	Y30	Z30	X31	Y31	Z31	X32	Y32	Z32	X33	Y33	Z33	X34	Y34	Z34	X35	Y35	Z35	X36	Y36	Z36	X37	Y37	Z37	X38	Y38	Z38	X39	Y39	Z39	X40	Y40	Z40	X41	Y41	Z41	X42	Y42	Z42	X43	Y43	Z43	X44	Y44	Z44	X45	Y45	Z45	X46	Y46	Z46	X47	Y47	Z47	X48	Y48	Z48	X49	Y49	Z49	X50	Y50	Z50	X51	Y51	Z51	X52	Y52	Z52	X53	Y53	Z53	X54	Y54	Z54	X55	Y55	Z55	X56	Y56	Z56	X57	Y57	Z57	X58	Y58	Z58	X59	Y59	Z59	X60	Y60	Z60	X61	Y61	Z61	

790	3.945	-310.7232971191407	1816.51611328125	-605.0368041992189	-463.3502197265626	1755.740600585938	-679.2653198242189	-298.4649047851563	1824.213623046875	-747.1409301757814	-475.8113708496095	1605.365112304688	-692.2946777343751	-493.2076416015626	1297.642211914063	-685.3826293945314	-313.0213317871094	1563.309814453125	-679.6600341796876	-325.5391540527344	1615.370361328125	-832.9507446289065	-174.6732788085938	1550.111572265625	-947.5179443359377	-148.8897705078125	1585.866455078125	-922.0277099609377	-104.952751159668	1550.2138671875	-942.0095825195315	-28.59379768371583	1552.645141601563	-927.378112792969	-23.74266242980957	1495.152709960938	-895.891296386719	236.015609741211	1563.183959960938	-820.0111083984377	240.9456329345704	1587.307006835938	-897.9102172851565	335.2884521484376	1588.87548828125	-817.4536743164065	-335.0742187500001	1611.123291015625	-524.9141845703126	-176.9521484375	1523.360473632813	-420.4678039550782	-153.6521759033203	1562.410522460938	-443.0424804687501	-107.7408447265625	1532.444946289063	-421.4557495117189	-40.15875244140626	1524.03759765625	-429.053680419922	-32.4452133178711	1468.95166015625	-484.3240356445314	nan	nan	nan	228.2936096191407	1567.86328125	-427.8688049316407	323.7941284179688	1581.626098632813	-492.8630981445314	-323.1555480957032	1115.71484375	-839.9558105468752	-305.9106140136719	1078.831665039063	-604.4739379882814	-507.185272216797	1174.321166992188	-685.2729492187501	-518.5448608398439	1146.53466796875	-715.8995361328126	-506.454559326172	1138.692993164063	-659.9750366210939	-272.1211547851563	876.4188232421877	-929.4448852539065	-212.8093261718751	817.155212402344	-922.4111938476565	-174.6700897216797	832.2346191406252	-891.8836059570315	-216.7901763916016	756.8364868164064	-919.2291259765627	-171.1187591552735	667.3129882812501	-912.2618408203127	-153.350830078125	659.8522949218751	-784.1983642578127	-63.12376785278322	567.7124633789064	-877.7358398437502	-90.81857299804689	515.5906372070314	-939.1606445312502	-53.35721588134767	522.7942504882814	-914.1763305664065	-18.31695747375489	449.417205810547	-893.6923828125002	13.81848430633545	245.2578735351563	-921.5495605468752	30.03629875183106	265.3111267089844	-831.3533325195315	-24.37350273132325	183.2574005126953	-870.6510009765627	178.0516815185547	271.8024291992188	-854.0386352539065	181.1407012939453	279.6340026855469	-900.2495117187502	146.3574981689453	240.6615600585938	-954.1033325195315	-406.8813476562501	862.7487792968752	-553.6213378906251	-367.6034545898438	809.1652832031252	-553.2825317382814	-334.2244567871094	810.2430419921877	-554.8600463867189	-391.2664489746095	731.7327270507814	-577.2160034179689	-376.0640563964844	554.1279296875001	-610.0125122070314	-340.4218750000001	553.0800781250001	-742.3635864257814	-314.0609130859376	358.6103820800782	-708.4820556640626	-349.8865966796876	274.7597961425782	-649.7607421875001	-313.1434936523438	272.0884704589844	-680.9632568359376	-320.4904479980469	229.8750915527344	-719.6112670898439	-374.5795288085938	115.2978591918946	-688.3358154296876	-344.1742858886719	144.1980133056641	-773.2315063476565	-437.8643798828126	100.1908569335938	-752.8011474609376	-228.7555847167969	60.38325881958009	-766.5931396484376	-221.2183380126954	60.12499618530275	-714.5695800781251	-270.4249572753907	27.31362533569337	-663.3878784179689	
791	3.95	-310.7858581542969	1816.521240234375	-605.1923828125001	-463.3934631347657	1755.7216796875	-679.4391479492189	-298.4442443847657	1824.197631835938	-747.2583618164064	-475.8834838867189	1605.223388671875	-692.2829589843751	-492.9286193847657	1297.497436523438	-685.2974243164064	-312.9828491210938	1563.268188476563	-679.7537231445314	-325.5664367675782	1615.253540039063	-833.0425415039065	-174.7162170410157	1549.998168945313	-947.5435180664065	-148.9084625244141	1585.7333984375	-922.0933227539065	-104.8575286865235	1550.024658203125	-942.0435791015627	-28.58135032653809	1552.6025390625	-927.449157714844	-23.74834442138672	1495.150634765625	-895.9239501953127	236.0527648925782	1563.264770507813	-820.188903808594	240.9642791748047	1587.315795898438	-898.0923461914065	335.2291259765626	1588.952758789063	-817.6829223632815	-334.9789733886719	1611.187744140625	-524.9659423828126	-176.9644775390625	1523.366333007813	-420.5671997070314	-153.5887603759766	1562.4873046875	-443.0780334472657	-107.7071838378907	1532.475463867188	-421.5380249023439	-40.04722213745118	1524.23974609375	-429.4865112304689	-32.33467102050782	1468.968017578125	-484.3791809082032	nan	nan	nan	228.2618865966797	1567.852905273438	-428.1358642578126	323.5839233398438	1581.640502929688	-493.1210937500001	-322.8849487304688	1115.6240234375	-839.8758544921877	-305.5427856445313	1078.72119140625	-604.2163085937501	-506.6920166015626	1174.257934570313	-685.2492065429689	-518.0067138671876	1146.483764648438	-715.7718505859376	-506.0332336425782	1138.616088867188	-659.8847045898439	-271.8890075683594	876.2022705078127	-929.3885498046877	-212.7344970703126	816.9161376953127	-922.4517211914065	-174.3829956054688	832.0852050781252	-891.9279785156252	-215.722640991211	756.7308349609376	-919.4079589843752	-170.998046875	667.0465087890626	-912.1179809570315	-153.2137298583985	659.4481811523439	-784.0340576171877	-63.12330245971681	567.3462524414064	-877.509216308594	-90.7968215942383	515.2867431640626	-939.0518798828127	-53.31480407714845	522.5975341796876	-914.1423950195315	-18.25544166564942	448.8989257812501	-893.244079589844	13.66666412353516	244.822494506836	-921.4067382812502	29.73422431945801	264.8952331542969	-831.2340087890627	-24.74744606018067	182.8534240722657	-870.5070800781252	178.9232025146485	272.0059204101563	-854.0577392578127	181.3230438232422	279.4932250976563	-900.1130981445315	146.0550079345703	240.096908569336	-953.8245239257815	-406.0523071289064	862.6986083984377	-553.5993041992189	-366.9830627441407	809.1333618164065	-553.3577270507814	-333.9175720214844	810.1979980468752	-554.7438354492189	-390.6623535156251	731.5982666015626	-577.1054077148439	-375.5411987304688	554.0938720703126	-610.0957031250001	-340.0145568847657	553.0609741210939	-742.4769897460939	-313.7180480957032	358.6972351074219	-708.7510986328126	-349.4130249023438	274.7050170898438	-650.0185546875001	-312.7999877929688	272.0844421386719	-681.2971801757814	-320.5084533691407	229.8464813232422	-719.8929443359376	-374.2721252441407	115.4449005126953	-688.4985961914064	-344.1683044433594	144.1504821777344	-773.5181884765627	-437.8668518066407	100.2080612182617	-752.9176025390626	-228.8504180908204	60.77880096435548	-766.6101074218751	-221.1930694580079	60.06056976318361	-714.7032470703126	-270.4165344238282	27.49151802062989	-663.3327026367189	
792	3.955	-310.9258422851563	1816.448974609375	-605.3361816406251	-463.4143066406251	1755.647705078125	-679.6320190429689	-298.3979492187501	1824.182006835938	-747.3046264648439	-475.8952636718751	1605.187866210938	-692.3733520507814	-492.5610351562501	1297.403686523438	-685.1840820312501	-312.9041137695313	1563.269653320313	-679.8153076171876	-325.5442199707032	1615.174926757813	-833.1195068359377	-174.7527160644532	1549.812622070313	-947.626159667969	-148.9029083251953	1585.629272460938	-922.201599121094	-104.7299499511719	1549.865600585938	-942.1389160156252	-28.72947692871094	1552.513061523438	-927.3732910156252	-23.73016548156739	1495.099365234375	-895.8811035156252	235.9810638427735	1563.408203125	-820.342712402344	240.9066162109376	1587.34716796875	-898.272644042969	335.2810058593751	1589.103515625	-817.900817871094	-334.9032287597657	1611.212158203125	-524.9934692382814	-176.7877655029297	1523.4892578125	-420.6587219238282	-153.5381469726563	1562.52880859375	-443.2168579101564	-107.4644165039063	1532.586669921875	-421.6687011718751	-39.99203872680665	1524.261840820313	-429.6313476562501	-32.10354232788087	1469.004760742188	-484.4996948242189	nan	nan	nan	228.6404418945313	1568.034423828125	-428.3837280273439	323.6120605468751	1581.745361328125	-493.4302978515626	-322.4856872558594	1115.522583007813	-839.8016357421877	-304.9695129394532	1078.378784179688	-604.0277099609376	-506.1322631835939	1174.089599609375	-685.1417846679689	-517.6025390625001	1146.394775390625	-715.5643920898439	-505.6325073242189	1138.441040039063	-659.7835693359376	-271.6773986816407	875.985046386719	-929.284118652344	-212.6995849609376	816.5418701171877	-922.5027465820315	-174.322021484375	831.5966796875002	-891.9177246093752	-215.6168518066407	756.5850219726564	-919.3184814453127	-170.8213195800782	666.8109741210939	-911.7982177734377	-153.3135833740235	658.7979736328126	-783.8656005859377	-63.25962066650392	566.9000244140626	-877.428649902344	-90.8918914794922	514.8415527343751	-938.8804321289065	-53.25190353393556	522.3636474609376	-914.0603027343752	-18.26712226867676	448.606170654297	-893.0642089843752	13.34680366516114	244.3187255859376	-921.2436523437502	29.41839218139649	264.2507019042969	-831.1094360351565	-25.32518768310548	181.9742431640625	-870.2915649414065	178.2621612548828	270.9546508789063	-853.5910644531252	181.1814117431641	279.1056823730469	-899.8458251953127	145.7393951416016	239.2492980957032	-953.524597167969	-405.3915100097657	862.533874511719	-553.5036621093751	-366.7090759277344	808.704284667969	-553.1447753906251	-333.2786254882813	810.0732421875002	-554.7578125000001	-389.9530334472657	731.4625854492189	-577.1810913085939	-375.0958862304688	554.0744018554689	-610.2019653320314	-339.5730895996094	553.0679931640626	-742.6443481445314	-313.5050964355469	358.6616210937501	-709.1024169921876	-349.1857910156251	274.7084960937501	-650.1824951171876	-312.4675903320313	271.9286193847657	-681.5397338867189	-320.1852111816407	229.7064208984376	-720.2289428710939	-374.1873168945313	115.5306930541992	-688.6643066406251	-344.0556030273438	144.1221160888672	-773.8242187500002	-437.8170166015626	100.2477722167969	-752.9835815429689	-228.8757019042969	60.58197402954103	-766.7830200195314	-221.1948394775391	60.10304260253908	-714.8156127929689	-270.4219360351563	27.6423511505127	-663.3483886718751	
793	3.96	-311.1108093261719	1816.265991210938	-605.5626220703126	-463.4222717285157	1755.681396484375	-679.7313842773439	-298.3612670898438	1824.100463867188	-747.4230957031251	-475.9025268554689	1604.995483398438	-692.4667968750001	-492.2633666992189	1297.189697265625	-685.0894775390626	-312.9087524414063	1563.212158203125	-679.9199829101564	-325.5437316894532	1615.05078125	-833.1939086914065	-174.7088470458985	1549.652587890625	-947.691833496094	-148.7926177978516	1585.46337890625	-922.3107910156252	-104.672966003418	1549.746215820313	-942.2678833007815	-28.66110229492188	1552.431274414063	-927.4239501953127	-23.73464393615723	1495.101440429688	-895.898864746094	235.9578552246094	1563.459594726563	-820.5338134765627	240.9127502441407	1587.353515625	-898.440368652344	335.3262939453126	1589.278198242188	-818.1228637695315	-334.9397583007813	1611.258911132813	-525.1028442382814	-176.7066040039063	1523.609130859375	-420.7687072753907	-153.5548400878907	1562.448974609375	-443.2729797363282	-107.4000015258789	1532.637573242188	-421.777313232422	-39.94315338134766	1524.281005859375	-429.7747802734376	-32.07131958007813	1469.052612304688	-484.5382690429689	nan	nan	nan	228.624496459961	1568.061401367188	-428.5950927734376	324.0052185058594	1581.9345703125	-493.6741638183595	-322.0906677246094	1115.402099609375	-839.758972167969	-304.7196044921876	1078.3671875	-603.8055419921876	-505.862518310547	1174.025756835938	-684.9697265625001	-517.1738281250001	1146.176513671875	-715.3850097656251	-505.1903686523439	1138.349853515625	-659.7125244140626	-271.5531616210938	875.847839355469	-929.1277465820315	-212.6021575927735	816.3253173828127	-922.4356689453127	-174.250732421875	831.4726562500002	-891.8939208984377	-215.578353881836	756.2947387695314	-919.1250000000002	-170.9838409423828	666.4179687500001	-911.429138183594	-153.2870025634766	658.6177368164064	-783.6857910156252	-63.16159057617189	566.6215820312501	-877.3633422851565	-91.05825805664064	514.4989013671876	-938.662048339844	-53.58557128906251	521.9856567382814	-913.7316894531252	-18.38887405395508	447.9520568847657	-892.8607177734377	12.99335765838623	243.8881835937501	-920.9878540039065	29.1628646850586	263.7549133300782	-830.8667602539065	-25.22366333007813	182.297607421875	-870.2796020507815	177.5220031738282	270.0194702148438	-853.1368408203127	180.5050354003907	278.0077209472657	-899.438171386719	145.5471801757813	238.7598114013672	-953.3238525390627	-404.9892883300782	862.447204589844	-553.3934326171876	-366.1498413085938	808.525573730469	-553.0733642578126	-332.6412048339844	809.964050292969	-554.6864013671876	-389.7006835937501	731.3075561523439	-577.1814575195314	-374.3072814941407	554.0645141601564	-610.3223266601564	-339.0552978515626	553.1250610351564	-742.7172851562501	-313.3092041015626	358.5378112792969	-709.3601074218751	-348.8100891113282	274.8317260742188	-650.3976440429689	-312.0021362304688	271.7342834472657	-681.9973754882814	-319.5654907226563	230.0212097167969	-720.6135253906251	-374.1587524414063	115.6157684326172	-688.8957519531251	-344.1231384277344	143.9656677246094	-774.1504516601565	-437.8034057617189	100.258659362793	-753.1089477539064	-228.7888641357422	60.51343536376955	-766.8780517578126	-221.0853729248047	60.1844940185547	-714.9285278320314	-270.4257507324219	27.77572441101075	-663.3745727539064	
